<svg width="72" height="28" viewBox="0 0 72 28" fill="none" xmlns="http://www.w3.org/2000/svg">
<path d="M33.6942 13.6798V21.8875H31.0723V1.61806H38.0262C38.8562 1.60084 39.6815 1.74704 40.4544 2.04822C41.2272 2.34939 41.9324 2.79958 42.5291 3.37281C43.1319 3.91124 43.6116 4.57156 43.9361 5.3094C44.2605 6.04724 44.4221 6.84549 44.4101 7.65052C44.4274 8.45986 44.2682 9.26333 43.9435 10.0059C43.6189 10.7484 43.1364 11.4125 42.5291 11.9525C41.3131 13.104 39.8122 13.6792 38.0262 13.6781H33.6942V13.6798ZM33.6942 4.11353V11.1891H38.0913C38.5734 11.2033 39.0531 11.1174 39.4998 10.937C39.9465 10.7565 40.3504 10.4855 40.6856 10.1411C41.0191 9.8192 41.2841 9.43413 41.4651 9.0087C41.6461 8.58326 41.7393 8.12611 41.7393 7.66427C41.7393 7.20243 41.6461 6.74527 41.4651 6.31984C41.2841 5.89441 41.0191 5.50934 40.6856 5.1874C40.3546 4.83582 39.9521 4.55811 39.5049 4.3727C39.0576 4.18728 38.5758 4.09839 38.0913 4.11191H33.6942V4.11353Z" fill="white"/>
<path d="M50.4512 7.56641C52.3892 7.56641 53.9189 8.0807 55.0405 9.10929C56.162 10.1379 56.7222 11.5482 56.7211 13.3401V21.8874H54.2132V19.9629H54.0992C53.0135 21.5478 51.5695 22.3403 49.7672 22.3403C48.2288 22.3403 46.9417 21.8874 45.9059 20.9818C45.4089 20.5661 45.0115 20.0455 44.7427 19.4579C44.4739 18.8704 44.3405 18.2307 44.3523 17.5855C44.3523 16.1504 44.8984 15.0091 45.9906 14.1617C47.0828 13.3142 48.5409 12.8894 50.3649 12.8873C51.9218 12.8873 53.204 13.1703 54.2115 13.7363V13.1412C54.2145 12.7013 54.1189 12.2663 53.9315 11.8677C53.7442 11.4691 53.4699 11.1168 53.1285 10.8366C52.4352 10.2153 51.5316 9.87635 50.5978 9.88721C49.1332 9.88721 47.9742 10.5007 47.1208 11.7277L44.8115 10.2834C46.0818 8.47208 47.9617 7.56641 50.4512 7.56641ZM47.0589 17.6421C47.0572 17.9735 47.1352 18.3005 47.2864 18.5958C47.4377 18.8912 47.6579 19.1464 47.9286 19.3402C48.5085 19.7932 49.2282 20.0332 49.9659 20.0195C51.0723 20.0176 52.1329 19.5803 52.9152 18.8033C53.7838 17.9914 54.218 17.0388 54.218 15.9455C53.4005 15.2986 52.2605 14.9752 50.7981 14.9752C49.733 14.9752 48.8449 15.2302 48.1338 15.7401C47.4156 16.2577 47.0589 16.8868 47.0589 17.6421Z" fill="white"/>
<path d="M71.1182 8.01904L62.3631 28.0006H59.6564L62.9054 21.009L57.1484 8.01904H59.9984L64.1594 17.9815H64.2164L68.2633 8.01904H71.1182Z" fill="white"/>
<path d="M23.0977 11.9107C23.0987 11.1172 23.0311 10.325 22.8958 9.54297H11.8379V14.0277H18.1713C18.0417 14.744 17.7674 15.4268 17.3649 16.0349C16.9625 16.6431 16.4401 17.164 15.8295 17.5663V20.4774H19.6093C21.8225 18.451 23.0977 15.4541 23.0977 11.9107Z" fill="white"/>
<path d="M11.8378 23.2898C15.0021 23.2898 17.6664 22.258 19.6093 20.479L15.8294 17.5679C14.7773 18.2763 13.4224 18.6806 11.8378 18.6806C8.77938 18.6806 6.18347 16.6331 5.2552 13.874H1.36133V16.8741C2.33727 18.8027 3.83376 20.4239 5.68374 21.5568C7.53371 22.6897 9.66436 23.2897 11.8378 23.2898Z" fill="#F0F0F0"/>
<path d="M5.25572 13.8738C4.76497 12.428 4.76497 10.8623 5.25572 9.41656V6.4165H1.36185C0.540854 8.03889 0.113281 9.82945 0.113281 11.6452C0.113281 13.4609 0.540854 15.2515 1.36185 16.8738L5.25572 13.8738Z" fill="#E6E6E6"/>
<path d="M11.8378 4.61002C13.51 4.58289 15.1258 5.21031 16.3359 6.35668L19.6825 3.03317C17.5604 1.05374 14.749 -0.0330033 11.8378 0.000763984C9.66436 0.000862355 7.53371 0.600864 5.68374 1.73378C3.83376 2.8667 2.33727 4.48795 1.36133 6.41652L5.2552 9.41658C6.18347 6.6575 8.77938 4.61002 11.8378 4.61002Z" fill="#D9D9D9"/>
</svg>
