<svg width="81" height="16" viewBox="0 0 81 16" fill="none" xmlns="http://www.w3.org/2000/svg">
<path d="M42.8242 12.5257V2.52441H49.0375V4.84735H45.415V12.5257H42.8242Z" fill="white"/>
<path d="M56.8557 12.5257V8.60872H53.0068V12.5257H50.416V2.52441H53.0068V6.25683H56.8557V2.52441H59.4465V12.5257H56.8557Z" fill="white"/>
<path d="M74.4811 12.5257V4.84735H71.4551V2.52441H80.1141V4.84735H77.0732V12.5257H74.4811Z" fill="white"/>
<path d="M67.6421 12.524V6.82545L63.518 12.524H61.3516V2.52539H63.9424V8.16461L67.9973 2.52539H70.2343V12.524H67.6421Z" fill="white"/>
<path d="M27.9362 12.5257V6.58198L25.3494 9.72198L22.7627 6.58198V12.5257H20.1719V2.52441H22.7288L25.3494 5.96335L27.9701 2.52441H30.5269V12.5257H27.9362Z" fill="white"/>
<path d="M35.445 9.00777H37.8527L36.6489 5.87193L35.445 9.00777ZM39.2031 12.5239L38.6608 11.1226H34.6329L34.0906 12.5239H31.4863L35.4708 2.52393H37.8664L41.8522 12.5239H39.2031Z" fill="white"/>
<path d="M0.111328 4.55632C0.113837 3.34846 0.587185 2.19081 1.42773 1.33685C2.26828 0.482881 3.40753 0.00218416 4.59607 0H14.9498V2.31605H4.59878C4.01477 2.31858 3.45538 2.55538 3.0423 2.97493C2.62922 3.39447 2.39587 3.96282 2.39302 4.55632L2.37945 8.44444C2.3322 8.94257 2.12393 9.41077 1.78717 9.776C1.45042 10.1411 1.00414 10.3827 0.518046 10.4629L0.111328 10.5263V4.55632Z" fill="white"/>
<path d="M0.111328 15.0497V12.7336H10.465C11.0492 12.7307 11.6085 12.4936 12.0216 12.0739C12.4346 11.6541 12.6679 11.0856 12.6708 10.492V6.80229C12.6736 6.26699 12.8637 5.75014 13.2069 5.34406C13.5501 4.93797 14.0241 4.66909 14.5444 4.58544L14.9511 4.52344V10.492C14.9486 11.7 14.4753 12.8578 13.6347 13.712C12.7943 14.5662 11.655 15.0471 10.4663 15.0497H0.111328Z" fill="white"/>
<path d="M8.88395 10.5344V7.54054L7.53363 9.17872L6.18469 7.54054V10.5344H4.39648V4.64307H6.08979L7.53363 6.53751L8.9775 4.64307H10.6708V10.5344H8.88395Z" fill="white"/>
</svg>
