<svg width="104" height="19" viewBox="0 0 104 19" fill="none" xmlns="http://www.w3.org/2000/svg">
<mask id="mask0_81_432" style="mask-type:alpha" maskUnits="userSpaceOnUse" x="0" y="0" width="104" height="19">
<path d="M10.3792 0.241699V9.84534C10.3792 10.2944 10.0404 10.6053 9.6338 10.6053H8.51571C8.44794 10.6053 8.41406 10.6744 8.41406 10.709V18.7581C8.68512 18.7581 8.95617 18.8272 9.2611 18.8272C14.3095 18.8272 18.4091 14.6472 18.4091 9.49988C18.4091 4.76715 14.9193 0.794427 10.3792 0.241699ZM10.1759 14.6126C9.53215 14.6126 9.05781 14.0599 9.05781 13.4726C9.05781 12.8162 9.59992 12.3326 10.1759 12.3326C10.8197 12.3326 11.294 12.8853 11.294 13.4726C11.3618 14.0944 10.8197 14.6126 10.1759 14.6126ZM12.8525 14.6126C12.2088 14.6126 11.7345 14.0599 11.7345 13.4726C11.7345 12.8162 12.2766 12.3326 12.8525 12.3326C13.4963 12.3326 13.9706 12.8853 13.9706 13.4726C13.9706 14.0599 13.5302 14.6126 12.8525 14.6126ZM15.5631 14.6126C14.9193 14.6126 14.445 14.0599 14.445 13.4726C14.445 12.8162 14.9871 12.3326 15.5631 12.3326C16.2068 12.3326 16.6812 12.8853 16.6812 13.4726C16.6812 14.0599 16.2068 14.6126 15.5631 14.6126Z" fill="#00B956"/>
<path d="M9.26131 0.207031C4.21295 0.207031 0.113281 4.38703 0.113281 9.5343C0.113281 14.0598 3.1965 17.7561 7.33006 18.6198V10.2252C7.33006 9.84521 7.66887 9.5343 8.00769 9.46521H8.38039H9.12578C9.19355 9.46521 9.22743 9.39612 9.22743 9.36158L9.26131 0.207031ZM7.49947 7.87612C6.85572 7.87612 6.38137 7.32339 6.38137 6.73612C6.38137 6.07976 6.92348 5.59612 7.49947 5.59612C8.14322 5.59612 8.61756 6.14885 8.61756 6.73612C8.61756 7.32339 8.10933 7.87612 7.49947 7.87612Z" fill="#00B956"/>
<path d="M100.844 5.28516V8.80879H96.2363V5.28516H93.8984V14.6124H96.2363V10.847H100.844V14.6124H103.114V5.28516H100.844Z" fill="#00B956"/>
<path d="M62.7599 6.35582C62.3872 5.52673 61.6418 5.07764 60.8964 5.07764C60.151 5.07764 59.3718 5.52673 59.0329 6.35582L55.3398 14.6467H57.7793L58.5925 12.6776H63.3359L64.1491 14.6467H66.5885L62.7599 6.35582ZM59.2362 10.8122L60.6254 7.39218C60.6931 7.28855 60.727 7.28855 60.7948 7.28855C60.8625 7.28855 60.9642 7.28855 60.9642 7.39218L62.3533 10.8122H59.2362Z" fill="#00B956"/>
<path d="M35.5199 3.62683C34.4357 3.62683 33.758 4.2141 33.2498 5.38865L30.3021 12.4014L27.3205 5.3541C26.8462 4.2141 26.1347 3.59229 25.0505 3.59229C24.034 3.59229 23.0176 4.28319 23.0176 5.90683V14.5777H25.2876V6.21774L28.3031 13.1614C28.6758 14.1632 29.3873 14.7505 30.3021 14.7505C31.2847 14.7505 31.9284 14.1632 32.3011 13.1614L35.3166 6.21774V14.6814H37.5867V6.01047C37.5528 4.38683 36.5363 3.62683 35.5199 3.62683Z" fill="#00B956"/>
<path d="M41.5847 12.6431C41.483 12.6431 41.3475 12.5395 41.3475 12.4013V10.7431H47.0396V8.84309H41.3475V7.42673C41.3475 7.32309 41.4492 7.18491 41.5847 7.18491H47.2429V5.21582H40.4666C39.6534 5.21582 39.1113 5.87218 39.1113 6.59764V13.1267C39.1113 13.8176 39.6873 14.5085 40.4666 14.5085H47.2429V12.5395H41.5847V12.6431Z" fill="#00B956"/>
<path d="M51.0721 14.6124V7.49607C51.0721 7.39243 51.1738 7.25425 51.3093 7.25425H56.9675V5.28516H50.1912C49.378 5.28516 48.8359 5.94152 48.8359 6.66697V14.5779L51.0721 14.6124Z" fill="#00B956"/>
<path d="M92.4076 9.98309C92.4076 6.73582 91.0184 5.21582 87.5625 5.21582H86.7494C83.2934 5.21582 81.9043 6.77037 81.9043 9.98309C81.9043 13.1613 83.2934 14.7504 86.7494 14.7504H87.4948C91.0184 14.6813 92.4076 13.1613 92.4076 9.98309ZM87.4948 12.7813H86.7494C84.8859 12.7813 84.1066 11.9176 84.1066 9.98309C84.1066 8.11764 84.7504 7.18491 86.7494 7.18491H87.4948C89.426 7.18491 90.1375 8.11764 90.1375 9.98309C90.1375 11.8831 89.426 12.7813 87.4948 12.7813Z" fill="#00B956"/>
<path d="M75.5687 3.83398H71.0286C67.6404 3.83398 66.2852 5.5958 66.2852 8.60126C66.2852 9.08489 66.3529 9.53399 66.3868 9.91398C66.7595 12.0558 68.0131 13.3685 71.1641 13.3685H72.1805V14.5776H74.4506V13.3685H75.4332C78.6181 13.3685 79.8717 12.0558 80.2105 9.91398C80.2782 9.53399 80.3121 9.08489 80.3121 8.60126C80.2782 5.5958 78.8891 3.83398 75.5687 3.83398ZM72.1128 11.434H71.0963C69.5378 11.434 68.9957 10.8467 68.6569 9.87944C68.5552 9.53398 68.5552 9.05035 68.5552 8.56671C68.5552 6.59762 69.47 5.76853 70.7575 5.76853H72.1467V11.434H72.1128ZM77.9404 9.98308C77.6016 10.9158 77.0256 11.5376 75.5009 11.5376H74.4845V5.83762H75.8736C77.1611 5.83762 78.0759 6.66671 78.0759 8.6358C78.0421 9.15398 78.0421 9.56853 77.9404 9.98308Z" fill="#00B956"/>
</mask>
<g mask="url(#mask0_81_432)">
<path d="M10.3792 0.241699V9.84534C10.3792 10.2944 10.0404 10.6053 9.6338 10.6053H8.51571C8.44794 10.6053 8.41406 10.6744 8.41406 10.709V18.7581C8.68512 18.7581 8.95617 18.8272 9.2611 18.8272C14.3095 18.8272 18.4091 14.6472 18.4091 9.49988C18.4091 4.76715 14.9193 0.794427 10.3792 0.241699ZM10.1759 14.6126C9.53215 14.6126 9.05781 14.0599 9.05781 13.4726C9.05781 12.8162 9.59992 12.3326 10.1759 12.3326C10.8197 12.3326 11.294 12.8853 11.294 13.4726C11.3618 14.0944 10.8197 14.6126 10.1759 14.6126ZM12.8525 14.6126C12.2088 14.6126 11.7345 14.0599 11.7345 13.4726C11.7345 12.8162 12.2766 12.3326 12.8525 12.3326C13.4963 12.3326 13.9706 12.8853 13.9706 13.4726C13.9706 14.0599 13.5302 14.6126 12.8525 14.6126ZM15.5631 14.6126C14.9193 14.6126 14.445 14.0599 14.445 13.4726C14.445 12.8162 14.9871 12.3326 15.5631 12.3326C16.2068 12.3326 16.6812 12.8853 16.6812 13.4726C16.6812 14.0599 16.2068 14.6126 15.5631 14.6126Z" fill="white"/>
<path d="M9.26131 0.207031C4.21295 0.207031 0.113281 4.38703 0.113281 9.5343C0.113281 14.0598 3.1965 17.7561 7.33006 18.6198V10.2252C7.33006 9.84521 7.66887 9.5343 8.00769 9.46521H8.38039H9.12578C9.19355 9.46521 9.22743 9.39612 9.22743 9.36158L9.26131 0.207031ZM7.49947 7.87612C6.85572 7.87612 6.38137 7.32339 6.38137 6.73612C6.38137 6.07976 6.92348 5.59612 7.49947 5.59612C8.14322 5.59612 8.61756 6.14885 8.61756 6.73612C8.61756 7.32339 8.10933 7.87612 7.49947 7.87612Z" fill="white"/>
<path d="M100.844 5.28516V8.80879H96.2363V5.28516H93.8984V14.6124H96.2363V10.847H100.844V14.6124H103.114V5.28516H100.844Z" fill="white"/>
<path d="M62.7599 6.35582C62.3872 5.52673 61.6418 5.07764 60.8964 5.07764C60.151 5.07764 59.3718 5.52673 59.0329 6.35582L55.3398 14.6467H57.7793L58.5925 12.6776H63.3359L64.1491 14.6467H66.5885L62.7599 6.35582ZM59.2362 10.8122L60.6254 7.39218C60.6931 7.28855 60.727 7.28855 60.7948 7.28855C60.8625 7.28855 60.9642 7.28855 60.9642 7.39218L62.3533 10.8122H59.2362Z" fill="white"/>
<path d="M35.5199 3.62683C34.4357 3.62683 33.758 4.2141 33.2498 5.38865L30.3021 12.4014L27.3205 5.3541C26.8462 4.2141 26.1347 3.59229 25.0505 3.59229C24.034 3.59229 23.0176 4.28319 23.0176 5.90683V14.5777H25.2876V6.21774L28.3031 13.1614C28.6758 14.1632 29.3873 14.7505 30.3021 14.7505C31.2847 14.7505 31.9284 14.1632 32.3011 13.1614L35.3166 6.21774V14.6814H37.5867V6.01047C37.5528 4.38683 36.5363 3.62683 35.5199 3.62683Z" fill="white"/>
<path d="M41.5847 12.6431C41.483 12.6431 41.3475 12.5395 41.3475 12.4013V10.7431H47.0396V8.84309H41.3475V7.42673C41.3475 7.32309 41.4492 7.18491 41.5847 7.18491H47.2429V5.21582H40.4666C39.6534 5.21582 39.1113 5.87218 39.1113 6.59764V13.1267C39.1113 13.8176 39.6873 14.5085 40.4666 14.5085H47.2429V12.5395H41.5847V12.6431Z" fill="white"/>
<path d="M51.0721 14.6124V7.49607C51.0721 7.39243 51.1738 7.25425 51.3093 7.25425H56.9675V5.28516H50.1912C49.378 5.28516 48.8359 5.94152 48.8359 6.66697V14.5779L51.0721 14.6124Z" fill="white"/>
<path d="M92.4076 9.98309C92.4076 6.73582 91.0184 5.21582 87.5625 5.21582H86.7494C83.2934 5.21582 81.9043 6.77037 81.9043 9.98309C81.9043 13.1613 83.2934 14.7504 86.7494 14.7504H87.4948C91.0184 14.6813 92.4076 13.1613 92.4076 9.98309ZM87.4948 12.7813H86.7494C84.8859 12.7813 84.1066 11.9176 84.1066 9.98309C84.1066 8.11764 84.7504 7.18491 86.7494 7.18491H87.4948C89.426 7.18491 90.1375 8.11764 90.1375 9.98309C90.1375 11.8831 89.426 12.7813 87.4948 12.7813Z" fill="white"/>
<path d="M75.5687 3.83398H71.0286C67.6404 3.83398 66.2852 5.5958 66.2852 8.60126C66.2852 9.08489 66.3529 9.53399 66.3868 9.91398C66.7595 12.0558 68.0131 13.3685 71.1641 13.3685H72.1805V14.5776H74.4506V13.3685H75.4332C78.6181 13.3685 79.8717 12.0558 80.2105 9.91398C80.2782 9.53399 80.3121 9.08489 80.3121 8.60126C80.2782 5.5958 78.8891 3.83398 75.5687 3.83398ZM72.1128 11.434H71.0963C69.5378 11.434 68.9957 10.8467 68.6569 9.87944C68.5552 9.53398 68.5552 9.05035 68.5552 8.56671C68.5552 6.59762 69.47 5.76853 70.7575 5.76853H72.1467V11.434H72.1128ZM77.9404 9.98308C77.6016 10.9158 77.0256 11.5376 75.5009 11.5376H74.4845V5.83762H75.8736C77.1611 5.83762 78.0759 6.66671 78.0759 8.6358C78.0421 9.15398 78.0421 9.56853 77.9404 9.98308Z" fill="white"/>
</g>
</svg>
