<svg width="69" height="21" viewBox="0 0 69 21" fill="none" xmlns="http://www.w3.org/2000/svg">
<path d="M64.3727 0.299805H60.0727C58.7727 0.299805 57.7727 0.699805 57.1727 1.9998L48.9727 20.6998H54.7727C54.7727 20.6998 55.7727 18.1998 55.9727 17.5998C56.5727 17.5998 62.2727 17.5998 63.0727 17.5998C63.2727 18.2998 63.7727 20.5998 63.7727 20.5998H68.9727L64.3727 0.299805ZM57.5727 13.3998C58.0727 12.1998 59.7727 7.6998 59.7727 7.6998C59.7727 7.7998 60.2727 6.4998 60.4727 5.7998L60.8727 7.5998C60.8727 7.5998 61.9727 12.4998 62.1727 13.4998H57.5727V13.3998Z" fill="white"/>
<path d="M49.3727 14C49.3727 18.2 45.5727 21 39.6727 21C37.1727 21 34.7727 20.5 33.4727 19.9L34.2727 15.3L34.9727 15.6C36.7727 16.4 37.9727 16.7 40.1727 16.7C41.7727 16.7 43.4727 16.1 43.4727 14.7C43.4727 13.8 42.7727 13.2 40.5727 12.2C38.4727 11.2 35.6727 9.6 35.6727 6.7C35.6727 2.7 39.5727 0 45.0727 0C47.1727 0 48.9727 0.4 50.0727 0.9L49.2727 5.3L48.8727 4.9C47.8727 4.5 46.5727 4.1 44.6727 4.1C42.5727 4.2 41.5727 5.1 41.5727 5.9C41.5727 6.8 42.7727 7.5 44.6727 8.4C47.8727 9.9 49.3727 11.6 49.3727 14Z" fill="white"/>
<path d="M0.572266 0.500098L0.672266 0.100098H9.27227C10.4723 0.100098 11.3723 0.500098 11.6723 1.8001L13.5723 10.8001C11.6723 6.0001 7.27227 2.1001 0.572266 0.500098Z" fill="#AFAFAF"/>
<path d="M25.6723 0.300195L16.9723 20.6002H11.0723L6.07227 3.6002C9.67227 5.9002 12.6723 9.5002 13.7723 12.0002L14.3723 14.1002L19.7723 0.200195H25.6723V0.300195Z" fill="white"/>
<path d="M27.9727 0.200195H33.4727L29.9727 20.6002H24.4727L27.9727 0.200195Z" fill="white"/>
</svg>
